<?xml version="1.0" encoding="UTF-8" standalone="no"?>
<!-- Created with Inkscape (http://www.inkscape.org/) -->
<svg
   xmlns:svg="http://www.w3.org/2000/svg"
   xmlns="http://www.w3.org/2000/svg"
   version="1.0"
   width="972.28003"
   height="410.20999"
   id="svg2">
  <defs
     id="defs4">
    <clipPath
       id="clipPath2524">
      <path
         d="M 0.059998,793.701 L 595.276,793.701 L 595.276,0.06 L 0.059998,0.06 L 0.059998,793.701 z"
         id="path2526" />
    </clipPath>
    <clipPath
       id="clipPath2518">
      <path
         d="M -8.504,396.851 L 297.638,396.851 L 297.638,198.425 L -8.504,198.425 L -8.504,396.851 z"
         id="path2520" />
    </clipPath>
    <clipPath
       id="clipPath2512">
      <path
         d="M -5.297,198.288 L 297.774,198.288 L 297.774,396.947 L -5.297,396.947 L -5.297,198.288 z"
         id="path2514" />
    </clipPath>
    <clipPath
       id="clipPath2502">
      <path
         d="M 0.059998,793.701 L 595.276,793.701 L 595.276,0.06 L 0.059998,0.06 L 0.059998,793.701 z"
         id="path2504" />
    </clipPath>
    <clipPath
       id="clipPath2490">
      <path
         d="M 0.059998,793.701 L 595.276,793.701 L 595.276,0.06 L 0.059998,0.06 L 0.059998,793.701 z"
         id="path2492" />
    </clipPath>
    <clipPath
       id="clipPath2484">
      <path
         d="M 297.638,396.851 L 603.78,396.851 L 603.78,198.426 L 297.638,198.426 L 297.638,396.851 z"
         id="path2486" />
    </clipPath>
    <clipPath
       id="clipPath2478">
      <path
         d="M 297.468,198.191 L 603.977,198.191 L 603.977,396.989 L 297.468,396.989 L 297.468,198.191 z"
         id="path2480" />
    </clipPath>
    <clipPath
       id="clipPath2468">
      <path
         d="M 0.059998,793.701 L 595.276,793.701 L 595.276,0.06 L 0.059998,0.06 L 0.059998,793.701 z"
         id="path2470" />
    </clipPath>
    <clipPath
       id="clipPath2418">
      <path
         d="M 0.059998,793.701 L 595.276,793.701 L 595.276,0.06 L 0.059998,0.06 L 0.059998,793.701 z"
         id="path2420" />
    </clipPath>
    <clipPath
       id="clipPath2855">
      <path
         d="M 0.059998,841.98 L 595.38,841.98 L 595.38,0.06 L 0.059998,0.06 L 0.059998,841.98 z"
         id="path2857" />
    </clipPath>
    <clipPath
       id="clipPath2849">
      <path
         d="M 297.5,849.949 L 611.529,849.949 L 611.529,-15.978 L 297.5,-15.978 L 297.5,849.949 z"
         id="path2851" />
    </clipPath>
    <clipPath
       id="clipPath2843">
      <path
         d="M -27.97,869.89 L 623.276,869.89 L 623.276,-28 L -27.97,-28 L -27.97,869.89 z"
         id="path2845" />
    </clipPath>
    <clipPath
       id="clipPath2721">
      <path
         d="M 0.059998,841.98 L 595.38,841.98 L 595.38,0.06 L 0.059998,0.06 L 0.059998,841.98 z"
         id="path2723" />
    </clipPath>
    <clipPath
       id="clipPath2715">
      <path
         d="M 24.499,430.421 L 297.5,430.421 L 297.5,325.54 L 24.499,325.54 L 24.499,430.421 z"
         id="path2717" />
    </clipPath>
    <clipPath
       id="clipPath2709">
      <path
         d="M -27.97,869.89 L 623.276,869.89 L 623.276,-28 L -27.97,-28 L -27.97,869.89 z"
         id="path2711" />
    </clipPath>
  </defs>
  <g
     transform="translate(-2.9487122,-3.9168327)"
     id="layer1">
    <g
       transform="matrix(9.9536291,0,0,9.9536291,-848.14914,-7841.5187)"
       id="g3289">
      <path
         d="M 95.35339,793.46705 C 94.37714,793.0458 93.28839,792.80205 92.19839,792.80205 C 91.13214,792.80205 89.75464,793.26705 89.75464,794.9558 C 89.75464,797.6408 96.55464,796.50955 96.55464,801.7083 C 96.55464,805.1083 93.86589,806.39705 90.73464,806.39705 C 89.04464,806.39705 88.28964,806.1733 86.75464,805.79705 L 87.04464,802.99705 C 88.11089,803.5758 89.33339,803.95205 90.55589,803.95205 C 91.73339,803.95205 93.30964,803.35205 93.30964,801.9533 C 93.30964,798.99705 86.51089,800.2208 86.51089,795.08955 C 86.51089,791.62455 89.19964,790.35955 91.93214,790.35955 C 93.26589,790.35955 94.51089,790.53705 95.64339,790.9133 L 95.35339,793.46705"
         id="path2727"
         style="fill:#00aeef;fill-opacity:1;fill-rule:nonzero;stroke:none" />
      <path
         d="M 98.33339,794.68955 L 101.31077,794.68955 L 101.31077,806.12843 L 98.33339,806.12843 L 98.33339,794.68955 z M 98.33339,789.75955 L 101.31077,789.75955 L 101.31077,792.60118 L 98.33339,792.60118 L 98.33339,789.75955 z"
         id="path2729"
         style="fill:#00aeef;fill-opacity:1;fill-rule:nonzero;stroke:none" />
      <path
         d="M 106.04964,799.28705 C 106.18339,797.7533 107.02839,796.5983 108.69464,796.5983 C 110.36089,796.5983 111.02714,797.84205 111.11589,799.28705 L 106.04964,799.28705 z M 113.11714,803.06455 C 112.00589,803.6858 110.76214,804.21955 109.31589,804.21955 C 107.47214,804.21955 106.18339,803.1758 106.04964,801.3308 L 113.96089,801.3308 C 113.96089,797.33205 112.76089,794.4233 108.51714,794.4233 C 104.96089,794.4233 103.20589,797.15455 103.20589,800.4633 C 103.20589,804.21955 105.40589,806.39705 109.18339,806.39705 C 110.78214,806.39705 112.02839,806.0858 113.11714,805.48705 L 113.11714,803.06455"
         id="path2733"
         style="fill:#00aeef;fill-opacity:1;fill-rule:nonzero;stroke:none" />
      <path
         d="M 121.01089,803.81955 C 119.30089,803.81955 118.47839,801.9083 118.47839,800.35205 C 118.47839,798.59705 119.12339,796.73205 121.14464,796.73205 C 122.87839,796.73205 123.63214,798.3308 123.63214,800.2858 C 123.63214,802.1958 122.87839,803.81955 121.01089,803.81955 z M 123.76714,794.68955 L 123.76714,796.24455 L 123.72089,796.24455 C 122.89964,794.9333 121.72214,794.42205 120.21214,794.42205 C 116.78964,794.42205 115.36714,797.59955 115.36714,800.35205 C 115.36714,803.41955 116.65714,806.1283 120.03339,806.1283 C 121.69964,806.1283 123.03339,805.28455 123.58839,804.3058 L 123.63214,804.3058 C 123.63214,806.28455 123.47839,808.7508 120.18839,808.7508 C 119.25589,808.7508 117.76714,808.2408 116.85589,807.7508 L 116.61089,810.2858 C 118.03464,810.8833 119.38964,811.06205 120.56589,811.06205 C 125.36589,811.06205 126.61089,808.12955 126.61089,805.0183 L 126.61089,794.68955 L 123.76714,794.68955"
         id="path2737"
         style="fill:#00aeef;fill-opacity:1;fill-rule:nonzero;stroke:none" />
      <path
         d="M 130.63339,796.86455 L 128.43339,796.86455 L 128.43339,794.68955 L 130.63339,794.68955 L 130.63339,793.0883 C 130.63339,790.8008 131.92464,789.2033 134.27714,789.2033 C 135.03089,789.2033 135.87714,789.31455 136.45339,789.4483 L 136.20964,791.91205 C 135.94464,791.7583 135.56464,791.5133 134.92089,791.5133 C 133.91964,791.5133 133.60964,792.3783 133.60964,793.26705 L 133.60964,794.68955 L 136.20964,794.68955 L 136.20964,796.86455 L 133.60964,796.86455 L 133.60964,806.1283 L 130.63339,806.1283 L 130.63339,796.86455"
         id="path2741"
         style="fill:#00aeef;fill-opacity:1;fill-rule:nonzero;stroke:none" />
      <path
         d="M 138.13839,794.68955 L 140.78214,794.68955 L 140.78214,797.28705 L 140.82839,797.28705 C 140.96089,796.21955 142.18214,794.42205 143.95964,794.42205 C 144.24839,794.42205 144.55964,794.42205 144.87089,794.5108 L 144.87089,797.5083 C 144.60339,797.3533 144.06964,797.2633 143.53714,797.2633 C 141.11839,797.2633 141.11839,800.2858 141.11839,801.92955 L 141.11839,806.1283 L 138.13839,806.1283 L 138.13839,794.68955"
         id="path2745"
         style="fill:#00aeef;fill-opacity:1;fill-rule:nonzero;stroke:none" />
      <path
         d="M 146.40964,794.68955 L 149.38689,794.68955 L 149.38689,806.12843 L 146.40964,806.12843 L 146.40964,794.68955 z M 146.40964,789.75955 L 149.38689,789.75955 L 149.38689,792.60118 L 146.40964,792.60118 L 146.40964,789.75955 z"
         id="path2747"
         style="fill:#00aeef;fill-opacity:1;fill-rule:nonzero;stroke:none" />
      <path
         d="M 154.05339,799.28705 C 154.18714,797.7533 155.03089,796.5983 156.69839,796.5983 C 158.36464,796.5983 159.02964,797.84205 159.11964,799.28705 L 154.05339,799.28705 z M 161.11839,803.06455 C 160.00714,803.6858 158.76339,804.21955 157.31964,804.21955 C 155.47464,804.21955 154.18714,803.1758 154.05339,801.3308 L 161.96339,801.3308 C 161.96339,797.33205 160.76339,794.4233 156.52089,794.4233 C 152.96339,794.4233 151.20964,797.15455 151.20964,800.4633 C 151.20964,804.21955 153.40839,806.39705 157.18714,806.39705 C 158.78464,806.39705 160.03089,806.0858 161.11839,805.48705 L 161.11839,803.06455"
         id="path2751"
         style="fill:#00aeef;fill-opacity:1;fill-rule:nonzero;stroke:none" />
      <path
         d="M 166.65214,800.3758 C 166.65214,798.8408 167.18464,796.73205 169.11839,796.73205 C 171.02839,796.73205 171.78464,798.77455 171.78464,800.3758 C 171.78464,801.9958 171.13964,804.08455 169.16339,804.08455 C 167.20714,804.08455 166.65214,801.95205 166.65214,800.3758 z M 171.89589,806.1283 L 174.78339,806.1283 L 174.78339,789.46955 L 171.80589,789.46955 L 171.80589,796.0208 L 171.76214,796.0208 C 170.87214,794.9333 169.82839,794.42205 168.33964,794.42205 C 164.82839,794.42205 163.53964,797.2208 163.53964,800.3758 C 163.53964,803.50705 164.82839,806.3958 168.33964,806.3958 C 169.73964,806.3958 170.96214,805.95205 171.85089,804.8408 L 171.89589,804.8408 L 171.89589,806.1283"
         id="path2755"
         style="fill:#00aeef;fill-opacity:1;fill-rule:nonzero;stroke:none" />
      <path
         d="M 180.80714,828.4058 L 182.18264,828.4058 L 182.18264,806.1208 L 180.80714,806.1208 L 180.80714,828.4058 z"
         id="path2757"
         style="fill:#00aeef;fill-opacity:1;fill-rule:nonzero;stroke:none" />
    </g>
  </g>
</svg>
